<svg xmlns="http://www.w3.org/2000/svg" width="284.117" height="227.313" viewBox="0 0 284.117 227.313">
  <g id="Group_2050" data-name="Group 2050" transform="translate(-68.942 -75)">
    <g id="Group_2049" data-name="Group 2049" transform="translate(16 3)">
      <rect id="Rectangle_1" data-name="Rectangle 1" width="6.189" height="105.199" transform="translate(97.883 193.867)" fill="#ffbe21"/>
      <line id="Line_1" data-name="Line 1" x1="6.192" transform="translate(97.883 195.313)" fill="none" stroke="#a15842" stroke-miterlimit="10" stroke-width="1"/>
      <path id="Path_1" data-name="Path 1" d="M300.807,875.648a9.176,9.176,0,0,1,17.329,0,9.176,9.176,0,0,1,8.158-6.142,22.864,22.864,0,0,0-2.878-4.032l-3.332-3.747a7.591,7.591,0,0,1-1.008-8.652l2.828-5.255h0a17.511,17.511,0,0,1-24.7,0h-.013l2.83,5.255a7.586,7.586,0,0,1-1.038,8.652l-3.329,3.732a22.952,22.952,0,0,0-2.886,4.032A9.179,9.179,0,0,1,300.807,875.648Z" transform="translate(-231.01 -597.691)" fill="#4756df"/>
      <path id="Path_2" data-name="Path 2" d="M318.13,979.3a9.175,9.175,0,0,0-8.664,6.158,9.173,9.173,0,0,0-17.329,0,9.181,9.181,0,0,0-10.958-5.869,22.825,22.825,0,0,0,6.552,15.509H313.99a22.825,22.825,0,0,0,6.552-15.474A9.121,9.121,0,0,0,318.13,979.3Z" transform="translate(-222.341 -696.037)" fill="#4756df"/>
      <path id="Path_3" data-name="Path 3" d="M322.639,852.956a18.16,18.16,0,0,0,12.349-5.1h-24.7A18.2,18.2,0,0,0,322.639,852.956Z" transform="translate(-244.115 -597.721)" fill="#30242a"/>
      <path id="Path_4" data-name="Path 4" d="M292.133,951.442a9.173,9.173,0,0,1,17.329,0,9.173,9.173,0,0,1,11.089-5.834,22.857,22.857,0,0,0-2.926-11.776,9.176,9.176,0,0,0-8.158,6.141,9.176,9.176,0,0,0-17.329,0,9.178,9.178,0,0,0-8.037-6.134,22.852,22.852,0,0,0-2.921,11.734,9.181,9.181,0,0,1,10.958,5.87Z" transform="translate(-222.337 -662.016)" fill="#3ec1f3"/>
      <path id="Path_5" data-name="Path 5" d="M366.55,800.048c.5-3.085,2.795-15.312,8.556-21.958" transform="translate(-286.197 -545.534)" fill="none" stroke="#30242a" stroke-linecap="round" stroke-miterlimit="10" stroke-width="1"/>
      <path id="Path_6" data-name="Path 6" d="M344.668,773.665c-.038-3.5-.4-20.7-3.818-30.965" transform="translate(-266.973 -519.063)" fill="none" stroke="#30242a" stroke-linecap="round" stroke-miterlimit="10" stroke-width="1"/>
      <ellipse id="Ellipse_1" data-name="Ellipse 1" cx="9.992" cy="2.248" rx="9.992" ry="2.248" transform="translate(81.896 242.476) rotate(-23.75)" fill="#30242a"/>
      <ellipse id="Ellipse_3" data-name="Ellipse 3" cx="12.059" cy="2.13" rx="12.059" ry="2.13" transform="translate(52.942 241.905) rotate(-8.6)" fill="#30242a"/>
      <path id="Path_7" data-name="Path 7" d="M278.559,756.58v.018a4.458,4.458,0,0,1-3.639,8.1v.015c5.519,2.48,10.814,2.669,11.822.423S284.081,759.06,278.559,756.58Z" transform="translate(-217.659 -529.445)" fill="#ff7235"/>
      <path id="Path_8" data-name="Path 8" d="M309.89,682.371c-1.174-.305-2.7,1.472-3.818,4.221-1.343-3.339-3.291-5.575-4.6-5.141s-1.547,3.387-.638,6.87c-2.535-1.542-4.819-2.062-5.582-1.117-.973,1.2.9,4.33,4.188,6.983a18.833,18.833,0,0,0,3,2,4.456,4.456,0,0,1,7.069-2.419,18.9,18.9,0,0,0,1.174-3.3C311.744,686.388,311.389,682.759,309.89,682.371Z" transform="translate(-232.671 -473.209)" fill="#ff7235"/>
      <path id="Path_9" data-name="Path 9" d="M409.141,729.548c-.363-1.159-2.679-1.512-5.6-1.008,2.122-2.906,2.989-5.741,1.928-6.625s-3.695.479-6.169,3.092c-.03-2.969-.8-5.182-2-5.33-1.535-.189-3.2,3.057-3.712,7.245a18.877,18.877,0,0,0-.111,3.611,4.456,4.456,0,0,1,5.8,4.72,19.123,19.123,0,0,0,3.42-.756C406.712,733.245,409.6,731.025,409.141,729.548Z" transform="translate(-306.303 -501.836)" fill="#ff7235"/>
      <path id="Path_10" data-name="Path 10" d="M397.8,762.934a4.451,4.451,0,0,0-4.214-.819c.144,1.994.648,3.528,1.406,4.085.708.655,2.346.874,4.385.635A4.448,4.448,0,0,0,397.8,762.934Z" transform="translate(-306.422 -533.425)" fill="#30242a"/>
      <path id="Path_11" data-name="Path 11" d="M327.473,726.95a4.453,4.453,0,0,0-2.923,3.143c1.764.932,3.332,1.31,4.214.968.93-.252,1.981-1.53,2.855-3.387A4.448,4.448,0,0,0,327.473,726.95Z" transform="translate(-254.781 -507.113)" fill="#30242a"/>
      <path id="Path_12" data-name="Path 12" d="M279.028,764.13A2.165,2.165,0,0,1,280.8,760.2a4.453,4.453,0,0,0-2.268-3.528l-3.647,8.1A4.458,4.458,0,0,0,279.028,764.13Z" transform="translate(-217.636 -529.512)" fill="#f5ebdd"/>
      <path id="Path_13" data-name="Path 13" d="M287.075,771.425A2.165,2.165,0,0,0,288,774.2a4.443,4.443,0,0,0,1.777-3.932A2.165,2.165,0,0,0,287.075,771.425Z" transform="translate(-226.611 -539.588)" fill="#4856df"/>
      <path id="Path_14" data-name="Path 14" d="M758.255,594.75H694.16l1.084-4.3h28.135l10.731-41.966A26.567,26.567,0,0,1,759.848,528.5h0a22.111,22.111,0,0,1,21.421,27.6l-6.63,25.93a16.915,16.915,0,0,1-16.383,12.724Z" transform="translate(-531.244 -358.844)" fill="#ffb7d5"/>
      <rect id="Rectangle_2" data-name="Rectangle 2" width="4.551" height="40.849" transform="translate(163.412 280.172) rotate(-90)" fill="#a15842"/>
      <path id="Path_15" data-name="Path 15" d="M723.644,844.593,713.019,781.35H679.96l-10.625,63.243a2.1,2.1,0,0,0,2.072,2.445h0a2.1,2.1,0,0,0,2.051-1.653l13.916-64.034h18.241l13.911,64.034a2.1,2.1,0,0,0,2.051,1.653h0a2.1,2.1,0,0,0,2.067-2.445Z" transform="translate(-512.654 -547.972)" fill="#a15842"/>
      <rect id="Rectangle_3" data-name="Rectangle 3" width="4.551" height="40.849" transform="translate(197.253 280.172) rotate(-90)" fill="#ffbe21"/>
      <path id="Path_16" data-name="Path 16" d="M857.932,844.593,847.3,781.35H814.25l-10.625,63.243a2.1,2.1,0,0,0,2.071,2.445h0a2.1,2.1,0,0,0,2.049-1.653l13.911-64.035H839.9l13.911,64.034a2.1,2.1,0,0,0,2.054,1.653h0a2.1,2.1,0,0,0,2.066-2.445Z" transform="translate(-613.101 -547.972)" fill="#ffbe21"/>
      <path id="Path_17" data-name="Path 17" d="M742.685,693.849,746.738,678H719.881A23.717,23.717,0,0,0,696.9,695.837l-2.745,10.736H726.3a16.915,16.915,0,0,0,16.386-12.722Z" transform="translate(-531.244 -470.668)" fill="#ffb7d5"/>
      <line id="Line_2" data-name="Line 2" x2="34.098" transform="translate(164.662 231.185)" fill="none" stroke="#a15842" stroke-linecap="round" stroke-linejoin="round" stroke-width="1"/>
      <line id="Line_3" data-name="Line 3" y1="23.362" x2="5.975" transform="translate(192.255 207.665)" fill="none" stroke="#a15842" stroke-linecap="round" stroke-linejoin="round" stroke-width="1"/>
      <line id="Line_4" data-name="Line 4" x1="16.129" transform="translate(230.92 206.79)" fill="none" stroke="#a15842" stroke-linecap="round" stroke-linejoin="round" stroke-width="1"/>
      <line id="Line_5" data-name="Line 5" x1="20.665" transform="translate(229.408 195.45)" fill="none" stroke="#a15842" stroke-linecap="round" stroke-linejoin="round" stroke-width="1"/>
      <path id="Path_18" data-name="Path 18" d="M492.276,610.5s-20.219,5.507-28.808,9.8c-14.161,7.079-14.113,11.752-22.747,37.908-7.971,24.173-8.848,35.89-19.844,36.353-8.395.353-11.147,3.1-12.508,6.865l33.218,15.761a1.651,1.651,0,0,0,2.155-.7h0a1.651,1.651,0,0,0-.622-2.218l-.7-.4a122.882,122.882,0,0,0,14.98-23.813l3.78,1.764s6.106-7.936,7.074-16.938c1.26-11.626.5-19.461,5.814-24.01l61.92-40.383Z" transform="translate(-317.478 -420.171)" fill="#ff7235"/>
      <path id="Path_19" data-name="Path 19" d="M445.05,925.447c.658-1.368,4.312-9.705,6.414-8.7,2.734,1.31-4.362,9.68-4.362,9.68Z" transform="translate(-344.914 -649.186)" fill="#30242a"/>
      <path id="Path_20" data-name="Path 20" d="M408.36,951.6l33.218,15.758a1.648,1.648,0,0,0,1.532-2.916l-.7-.4.071-.086L419.65,953.174a14.155,14.155,0,0,0,.716-2.928c3.417.592,10.333,1.23,10.368-1.62.038-2.656-7.515-1.59-10.275-.839a11.252,11.252,0,0,0-.59-3C412.256,945.314,409.665,947.986,408.36,951.6Z" transform="translate(-317.47 -670.223)" fill="#30242a"/>
      <path id="Path_21" data-name="Path 21" d="M608.6,640.282c-1.59.794-3,1.557-4.262,2.324l-1.938,6.207,7.46-5.254,6.878,5.484-2.535-7.518,7.79-3.569-6.021-.756A74.972,74.972,0,0,0,608.6,640.282Z" transform="translate(-462.609 -440.15)" fill="#ffb7d5"/>
      <path id="Path_22" data-name="Path 22" d="M712.714,636.61l-.5,3.284,3.286-1.263Z" transform="translate(-544.745 -439.709)" fill="#ffb7d5"/>
      <path id="Path_23" data-name="Path 23" d="M597.741,701.79l-4.8,6.318-6.825-3.284,4.042,6.822-6.318,5.307,8.087-1.011,2.782,9.352,2.78-9.352,8.846-2.528-8.594-3.538Z" transform="translate(-448.726 -488.462)" fill="#ffb7d5"/>
      <path id="Path_24" data-name="Path 24" d="M515.242,852.961l.59-1.684,8.064-.428-6.552-4.461,2.918-6.988-6.6,4.4-1.26-1.361c-1.008,3.319-1.9,6.275-2.772,8.873h.04c.1-.285.191-.572.287-.864Z" transform="translate(-393.219 -591.393)" fill="#ffb7d5"/>
      <path id="Path_25" data-name="Path 25" d="M473.026,885.783l-5.292-2.5c-.1.292-.192.58-.287.864-3.2,9.526-6.111,14.289-13.039,14.582-.34,0-.668.033-.99.055a11.252,11.252,0,0,1,.59,3c2.772-.756,10.312-1.817,10.275.839-.04,2.85-6.951,2.213-10.368,1.62a14.16,14.16,0,0,1-.723,2.928l22.833,10.779a123.5,123.5,0,0,0,14.9-23.712Z" transform="translate(-351.002 -624.214)" fill="#eaa58b"/>
      <path id="Path_26" data-name="Path 26" d="M588.673,817.12l-.756,6.825-7.077-.252,6.066,4.551-2.268,8.087,6.071-5.31,5.456,3.639q.227-.723.416-1.464l-2.092-5.209,3.241-3.551c.053-.66.1-1.31.151-1.943l-5.66.945Z" transform="translate(-446.482 -574.728)" fill="#ffb7d5"/>
      <path id="Path_27" data-name="Path 27" d="M543.2,760.83c-.638,1.971-1.323,4.11-2.079,6.436l6.724.411Z" transform="translate(-416.772 -532.624)" fill="#ffb7d5"/>
      <path id="Path_28" data-name="Path 28" d="M643.58,974.12c.106-1.512.436-10.61,2.76-10.446,3.024.212-.491,10.6-.491,10.6Z" transform="translate(-493.411 -684.346)" fill="#30242a"/>
      <path id="Path_29" data-name="Path 29" d="M680.059,612s-25.275,4.687-39.176,10.5c-14.035,5.869-13.9,16.293-11.373,44.607,2.268,25.348,6.32,37.656-2.016,41.446-7.646,3.478-10.3,7.838-9.939,11.825h37.638a1.615,1.615,0,0,0,1.615-1.615h0a1.615,1.615,0,0,0-1.615-1.615h-.635c1.187-3.883,2.908-11.464,3.145-24.009h4.667s2.4-11.089-.252-20.978c-2.772-10.36-5.307-12.13-6.822-19.206h22.649a27.071,27.071,0,0,0,26.479-32.878,28.758,28.758,0,0,0-2.878-8.064Z" transform="translate(-473.92 -421.301)" fill="#ff7235"/>
      <path id="Path_30" data-name="Path 30" d="M764.483,670.7l-4.64,5.837-7.225-2.482,4.282,7.009-5.559,7.583,7.329-3.034,4.085,7.53.464-8.289,7.077-1.515-6.063-3.793Z" transform="translate(-574.014 -465.208)" fill="#ffb7d5"/>
      <path id="Path_31" data-name="Path 31" d="M759.645,849.48l4.284,7.009-5.56,7.583,7.329-3.024,2.717,5.008a48.208,48.208,0,0,0-.675-15.174l-.867,1.091Z" transform="translate(-579.272 -598.932)" fill="#ffb7d5"/>
      <path id="Path_32" data-name="Path 32" d="M675.921,882.837l-.325-3.906,8.206-3.165-7.767-1.61.857-8.526-5.04,6.6-.151-.063c.484,4.07.907,7.626,1.144,10.7v-.028Z" transform="translate(-514.444 -611.012)" fill="#ffb7d5"/>
      <path id="Path_33" data-name="Path 33" d="M655.163,957.919h-.635c1.187-3.883,2.908-11.464,3.145-24.009H632.282v.023c.02.252.038.5.055.756v.07c.527,7.876-.333,12.482-4.884,14.551-7.646,3.478-10.3,7.838-9.939,11.825h37.648a1.615,1.615,0,1,0,0-3.231Z" transform="translate(-473.89 -662.085)" fill="#eaa58b"/>
      <path id="Path_34" data-name="Path 34" d="M847.807,614.59l-11.61,1.028,1.21,4.667-7.427,3.962,9.251,1.237,3.13,6.933,3.218-7.18,9.41-1.487-8.173-4.208Z" transform="translate(-632.835 -423.238)" fill="#ffb7d5"/>
      <path id="Path_35" data-name="Path 35" d="M667.108,690.142l2.772-8.846,8.087,1.26L671.649,677l4.536-5.307-8.339,3.024-1.333-2.286a18.423,18.423,0,0,0-4.133,9.324l1.421.045Z" transform="translate(-507.473 -465.948)" fill="#ffb7d5"/>
      <path id="Path_36" data-name="Path 36" d="M751.973,634.8c-1.706.474-3.4.97-5.063,1.482l6.681,4.536Z" transform="translate(-570.7 -438.355)" fill="#ffb7d5"/>
      <path id="Path_37" data-name="Path 37" d="M688.008,775.309l-3.538-7.329-1.769,8.087-6.57-.5,6.064,5.307-3.79,8.846,6.58-6.134,5.454,6.288-1.671-9.506,5.559-7.329Z" transform="translate(-517.758 -537.972)" fill="#ffb7d5"/>
      <path id="Path_38" data-name="Path 38" d="M629.164,997.792c3.342-.922,9.864-3.3,8.685-5.89-1.1-2.419-7.475,1.764-9.65,3.626a11.131,11.131,0,0,0-2.079-2.717c-6.6,3.359-8.914,7.427-8.569,11.167H655.19a1.615,1.615,0,0,0,1.615-1.615h0a1.615,1.615,0,0,0-1.615-1.615H629.762A14.314,14.314,0,0,0,629.164,997.792Z" transform="translate(-473.917 -704.914)" fill="#30242a"/>
      <path id="Path_39" data-name="Path 39" d="M690.962,630.42a150.1,150.1,0,0,0-19.405,6.106c-11.643,4.877-13.531,12.88-12.4,31.651" transform="translate(-504.851 -435.079)" fill="none" stroke="#a15842" stroke-linecap="round" stroke-miterlimit="10" stroke-width="1"/>
      <rect id="Rectangle_4" data-name="Rectangle 4" width="6.189" height="105.199" transform="translate(265.476 193.867)" fill="#ffbe21"/>
      <line id="Line_7" data-name="Line 7" x1="6.189" transform="translate(265.476 195.313)" fill="none" stroke="#a15842" stroke-miterlimit="10" stroke-width="1"/>
      <path id="Path_40" data-name="Path 40" d="M734.114,310.548c-3.528-.5-11.61,3.289-11.878,10.786s6.426,9.907,7.5,10.443l15.532-2.412,1.071-17.137Z" transform="translate(-552.239 -195.786)" fill="#a15842"/>
      <circle id="Ellipse_4" data-name="Ellipse 4" cx="12.072" cy="12.072" r="12.072" transform="translate(197.243 72)" fill="#a15842"/>
      <path id="Path_41" data-name="Path 41" d="M819.649,185.29c.736.34-5.461-14.365-8.624-12.072C808.049,175.384,815.912,183.567,819.649,185.29Z" transform="translate(-618.165 -92.918)" fill="#30242a"/>
      <path id="Path_42" data-name="Path 42" d="M848.484,200.208c.675.806,16.487-4.725,14.3-7.916C860.691,189.223,847.809,199.4,848.484,200.208Z" transform="translate(-646.657 -106.936)" fill="#30242a"/>
      <path id="Path_43" data-name="Path 43" d="M642.3,254.324s10.615-8.846,3.78-18.7c-4.35-6.283-16.177-3.78-16.177-3.78.287-3.45,1.225-13.39-6.25-18.851s-16.958-2.586-20.413,1.724-2.586,12.361-3.735,18.11-.383,9.657,3.16,11.5a10.917,10.917,0,0,0,7.016.663l-.4,6.066s-7.308.275-11.787,1.9c-10.791,3.906-29.75,30.7-29.75,30.7-11.877-.5-23-1.008-23-1.008l5.814,17.187s14.657,4.8,25.272,2.016c10.769-2.82,20.978-17.943,20.978-17.943L600.332,294l-6.066,16.933h52.822l-8.846-15.67C639.772,281.367,642.3,254.324,642.3,254.324Z" transform="translate(-419.48 -120.608)" fill="#eaa58b"/>
      <path id="Path_44" data-name="Path 44" d="M625.324,370.4l-13.861,25.133-5.67-24.251a37.592,37.592,0,0,0-8.279,1.633c-10.816,3.916-29.776,30.705-29.776,30.705-11.877-.5-23-1.008-23-1.008l5.814,17.187s14.657,4.8,25.272,2.016C586.595,419,596.8,403.873,596.8,403.873l3.528,10.108-6.066,16.933h52.822l-8.846-15.668c1.512-13.9,4.032-40.945,4.032-40.945a24.512,24.512,0,0,0-7.581-3.024C631.678,370.6,628.361,371,625.324,370.4Z" transform="translate(-419.48 -240.588)" fill="#5791ff"/>
      <path id="Path_45" data-name="Path 45" d="M543.751,500.744h43.77l-9.952-31.431a4.569,4.569,0,0,0-4.357-3.193H536.221a4.569,4.569,0,0,0-4.357,5.953l8.226,25.993A3.841,3.841,0,0,0,543.751,500.744Z" transform="translate(-409.688 -312.185)" fill="#30242a"/>
      <path id="Path_46" data-name="Path 46" d="M605.262,521.479c1.162-1.588,6.431,2.606,6.82,2.951.2-.345,2.946-4.536,4.957-2.951,1.746,1.376-2.092,7.523-3.112,9.09a.456.456,0,0,1-.678,0C611.386,529,604.254,522.855,605.262,521.479Z" transform="translate(-464.677 -353.325)" fill="#a15842"/>
      <ellipse id="Ellipse_5" data-name="Ellipse 5" cx="0.834" cy="2.553" rx="0.834" ry="2.553" transform="translate(144.655 164.591) rotate(-17.3)" fill="#a15842"/>
      <path id="Path_47" data-name="Path 47" d="M637.18,589.44a2.719,2.719,0,0,1-2.591,3.528h-66.6a3.841,3.841,0,0,1-3.662-2.679l-.272-.859Z" transform="translate(-433.931 -404.419)" fill="#30242a"/>
      <rect id="Rectangle_5" data-name="Rectangle 5" width="195.113" height="6.318" transform="translate(87.218 188.559)" fill="#ffbe21"/>
      <path id="Path_48" data-name="Path 48" d="M879.017,693.849,883.07,678H859.431a23.714,23.714,0,0,0-22.973,17.836l-2.747,10.737h28.919a16.917,16.917,0,0,0,16.388-12.723Z" transform="translate(-635.625 -470.668)" fill="#ffb7d5"/>
      <line id="Line_8" data-name="Line 8" x1="0.935" y2="3.952" transform="translate(197.709 231.75)" fill="none" stroke="#a15842" stroke-linecap="round" stroke-linejoin="round" stroke-width="1"/>
      <path id="Path_49" data-name="Path 49" d="M523.29,501.83c-2.941,1.469-4.41,3.919-4.41,5.635a3.114,3.114,0,0,0,2.55,2.976s-1.9,2.991,1.406,4.4a3.017,3.017,0,0,0,3.082,3.08s-.408,2.4,2.807,2.629,6.525-1.452,6.8-2.538c.32-1.283-.544-2.356-2.878-2.7,0,0,3.15-1.472,2.651-3.329a2.7,2.7,0,0,0-2.628-1.814s2.039-1.222.95-3.024a2.834,2.834,0,0,0-3.17-1.177,2.1,2.1,0,0,0-.408-2.22c-1.134-1.134-6.011.3-6.011.3Z" transform="translate(-400.137 -338.895)" fill="#eaa58a"/>
      <path id="Path_50" data-name="Path 50" d="M546.9,557.9a36.758,36.758,0,0,0,7.676-2.772" transform="translate(-421.096 -378.763)" fill="none" stroke="#a15842" stroke-linecap="round" stroke-miterlimit="10" stroke-width="1"/>
      <path id="Path_51" data-name="Path 51" d="M534.55,539.819a39.312,39.312,0,0,0,10.428-4.569" transform="translate(-411.858 -363.893)" fill="none" stroke="#a15842" stroke-linecap="round" stroke-miterlimit="10" stroke-width="1"/>
      <path id="Path_52" data-name="Path 52" d="M528,523.709a32.559,32.559,0,0,0,9.536-4.619" transform="translate(-406.959 -351.806)" fill="none" stroke="#a15842" stroke-linecap="round" stroke-miterlimit="10" stroke-width="1"/>
      <path id="Path_53" data-name="Path 53" d="M812.345,235.622c-4.35-6.283-16.177-3.78-16.177-3.78.287-3.45,1.225-13.39-6.25-18.851s-16.958-2.586-20.413,1.724a14.157,14.157,0,0,0-2.495,6.729,17.956,17.956,0,0,0,5.658-.4c4.6,5.174,8.72,6,8.72,6,3.218-3.218,8.863-3.112,9.781,1.764.953,5.063-7.135,7.339-7.135,7.339s-.756,9.1,3.276,12.384a9.468,9.468,0,0,0,4.257,1.908c3.024.6,6.353.2,9.393.872a24.51,24.51,0,0,1,7.581,3.024,19.4,19.4,0,0,0,2.52-2.686C813.711,248.278,816.881,242.174,812.345,235.622Z" transform="translate(-585.735 -120.608)" fill="#a15842"/>
      <path id="Path_54" data-name="Path 54" d="M792.747,246.5a12.871,12.871,0,0,1-5.308,2.52" transform="translate(-601.016 -147.912)" fill="none" stroke="#eaa58b" stroke-linecap="round" stroke-miterlimit="10" stroke-width="1"/>
      <path id="Path_55" data-name="Path 55" d="M802.09,346.592a18.781,18.781,0,0,0,3.379-1.512" transform="translate(-611.974 -221.649)" fill="none" stroke="#a15842" stroke-linecap="round" stroke-miterlimit="10" stroke-width="1"/>
      <line id="Line_9" data-name="Line 9" y1="1.436" x2="2.298" transform="translate(198.609 109.011)" fill="none" stroke="#a15842" stroke-linecap="round" stroke-miterlimit="10" stroke-width="1"/>
      <path id="Path_56" data-name="Path 56" d="M783.46,317.824a2.326,2.326,0,0,0,2.979-.844" transform="translate(-598.039 -200.63)" fill="none" stroke="#a15842" stroke-linecap="round" stroke-miterlimit="10" stroke-width="1"/>
      <circle id="Ellipse_6" data-name="Ellipse 6" cx="0.862" cy="0.862" r="0.862" transform="translate(189.241 109.003)" fill="#30242a"/>
      <circle id="Ellipse_7" data-name="Ellipse 7" cx="0.862" cy="0.862" r="0.862" transform="translate(182.097 107.862)" fill="#30242a"/>
      <path id="Path_57" data-name="Path 57" d="M782.569,299.93a2.8,2.8,0,0,0-.222,1.328,1.452,1.452,0,0,0,.59.587" transform="translate(-597.183 -187.877)" fill="none" stroke="#a15842" stroke-linecap="round" stroke-miterlimit="10" stroke-width="1"/>
      <circle id="Ellipse_8" data-name="Ellipse 8" cx="3.019" cy="3.019" r="3.019" transform="translate(196.671 112.854)" fill="#f5ebdd"/>
      <ellipse id="Ellipse_9" data-name="Ellipse 9" cx="4.952" cy="4.458" rx="4.952" ry="4.458" transform="translate(175.468 112.367) rotate(-78.99)" fill="none" stroke="#30242a" stroke-linecap="round" stroke-miterlimit="10" stroke-width="1"/>
      <ellipse id="Ellipse_10" data-name="Ellipse 10" cx="4.952" cy="4.458" rx="4.952" ry="4.458" transform="translate(186.418 113.71) rotate(-78.99)" fill="none" stroke="#30242a" stroke-linecap="round" stroke-miterlimit="10" stroke-width="1"/>
      <line id="Line_10" data-name="Line 10" x2="1.741" y2="0.186" transform="translate(185.373 108.802)" fill="none" stroke="#30242a" stroke-linecap="round" stroke-miterlimit="10" stroke-width="1"/>
      <line id="Line_11" data-name="Line 11" x1="0.502" y2="3.226" transform="translate(210.509 111.566)" fill="none" stroke="#30242a" stroke-linecap="round" stroke-miterlimit="10" stroke-width="1"/>
      <circle id="Ellipse_11" data-name="Ellipse 11" cx="4.957" cy="4.957" r="4.957" transform="translate(147.699 114.296)" fill="#ffb7d5"/>
      <rect id="Rectangle_6" data-name="Rectangle 6" width="7.041" height="2.601" rx="1.3" transform="translate(134.15 95.074) rotate(50.33)" fill="#4756df"/>
      <path id="Path_62" data-name="Path 62" d="M449.366,256.6l-2.9-3.5-52.185,43.271a2.23,2.23,0,0,0-.292,3.14l.058.071a2.228,2.228,0,0,0,3.138.292L413.5,286.341v47.487h4.554V282.561Z" transform="translate(-306.334 -152.849)" fill="#3ec1f3"/>
      <path id="Path_63" data-name="Path 63" d="M581.89,271l1.454,1.764a6.24,6.24,0,0,1,1.134,2.072" transform="translate(-447.268 -166.238)" fill="none" stroke="#4756df" stroke-miterlimit="10" stroke-width="1"/>
      <circle id="Ellipse_12" data-name="Ellipse 12" cx="5.94" cy="5.94" r="5.94" transform="translate(103.498 122.663)" fill="#4756df"/>
      <circle id="Ellipse_13" data-name="Ellipse 13" cx="2.283" cy="2.283" r="2.283" transform="translate(107.155 126.319)" fill="#3ec1f3"/>
      <line id="Line_15" data-name="Line 15" x1="7.598" y2="6.28" transform="translate(149.128 116.438)" fill="none" stroke="#a15842" stroke-miterlimit="10" stroke-width="1"/>
      <path id="Path_64" data-name="Path 64" d="M590.333,246.139a6.255,6.255,0,0,1-4.088-2.223l-2.016-2.437a4.209,4.209,0,0,0-5.922-.552h0a4.2,4.2,0,0,0-.552,5.92l2.016,2.445a6.253,6.253,0,0,1,1.419,4.415l-.5,7.369a16.862,16.862,0,0,0,2.611,10.242l.645,1.008,24.176-20.053-.867-.814A16.855,16.855,0,0,0,597.675,247Z" transform="translate(-443.451 -143.021)" fill="#3ec1f3"/>
      <path id="Path_65" data-name="Path 65" d="M444.483,573.43h-4.554l-6.731,1.835a5.955,5.955,0,0,0-4.388,5.746H455.6a5.955,5.955,0,0,0-4.39-5.746Z" transform="translate(-332.766 -392.451)" fill="#3ec1f3"/>
      <line id="Line_16" data-name="Line 16" x1="22.124" y2="18.286" transform="translate(137.956 105.687)" fill="none" stroke="#4756df" stroke-linecap="round" stroke-miterlimit="10" stroke-width="1"/>
      <line id="Line_17" data-name="Line 17" x2="4.665" transform="translate(107.052 180.457)" fill="none" stroke="#4756df" stroke-linecap="round" stroke-miterlimit="10" stroke-width="1"/>
      <line id="Line_18" data-name="Line 18" x2="24.869" transform="translate(96.928 185.409)" fill="none" stroke="#4756df" stroke-linecap="round" stroke-miterlimit="10" stroke-width="1"/>
      <path id="Path_66" data-name="Path 66" d="M979.381,784.7c.5-4.284.252-13.9-5.307-21.23s2.016-4.284,4.284-2.268c3.629,3.226,6.824,6.318,9.6,16.681Z" transform="translate(-739.122 -531.121)" fill="#30242a"/>
      <path id="Path_67" data-name="Path 67" d="M1266.974,1023.816h29.67v-.97a5.159,5.159,0,0,0-5.159-5.156H1266.82Z" transform="translate(-959.585 -724.751)" fill="#a15842"/>
      <path id="Path_68" data-name="Path 68" d="M978.519,850.545l6.258,28.326H996.4v-1.764a4.3,4.3,0,0,0-4.284-4.3h0a64.724,64.724,0,0,0,9.35-8.654s6.066,7.392,14.66,6.126l.622,3.024a6.973,6.973,0,0,0,6.817,5.565h28.183c12.5,0,18.649-1.908,19-9.025a2.016,2.016,0,0,0-2.016-2.1h-7.868a2.167,2.167,0,0,1-1.691-.809l-3.349-4.156a8.256,8.256,0,0,0-8.46-2.815l-6.737,1.721s-11.935-17.152-22.747-29.065c-10.333-11.373-29.768-12.6-37.424,2.213A23.284,23.284,0,0,0,978.519,850.545Z" transform="translate(-743.506 -579.806)" fill="#a15842"/>
      <path id="Path_69" data-name="Path 69" d="M1234.294,1023.816v-.97a5.156,5.156,0,0,0-5.159-5.156H1225.7" transform="translate(-928.828 -724.751)" fill="none" stroke="#30242a" stroke-miterlimit="10" stroke-width="1"/>
      <path id="Path_71" data-name="Path 71" d="M1123.41,965.54s.323,5.98.97,10.446" transform="translate(-852.317 -685.743)" fill="none" stroke="#30242a" stroke-linecap="round" stroke-miterlimit="10" stroke-width="1"/>
      <line id="Line_19" data-name="Line 19" y2="2.336" transform="translate(246.832 296.477)" fill="none" stroke="#30242a" stroke-linecap="round" stroke-miterlimit="10" stroke-width="1"/>
      <line id="Line_20" data-name="Line 20" y2="2.336" transform="translate(249.612 296.477)" fill="none" stroke="#30242a" stroke-linecap="round" stroke-miterlimit="10" stroke-width="1"/>
      <line id="Line_21" data-name="Line 21" y2="2.336" transform="translate(299.906 296.477)" fill="none" stroke="#30242a" stroke-linecap="round" stroke-miterlimit="10" stroke-width="1"/>
      <line id="Line_22" data-name="Line 22" y2="2.336" transform="translate(302.686 296.477)" fill="none" stroke="#30242a" stroke-linecap="round" stroke-miterlimit="10" stroke-width="1"/>
      <circle id="Ellipse_14" data-name="Ellipse 14" cx="1.137" cy="1.137" r="1.137" transform="translate(309.004 287.38)" fill="#30242a"/>
      <path id="Path_72" data-name="Path 72" d="M1233.492,966.82v-.03l-6.822,1.764,6.736-1.721Z" transform="translate(-929.554 -686.678)" fill="#30242a"/>
      <path id="Path_73" data-name="Path 73" d="M1173.616,979.873c-1.976,1.008-4.768,2.981-4.536,5.97h10.973l2.306-3.637a4.181,4.181,0,0,1,3.528-1.943h.733l3.76-13.226-.055-.058-6.736,1.721-6.449,8.261A10.621,10.621,0,0,1,1173.616,979.873Z" transform="translate(-886.467 -686.821)" fill="#30242a"/>
      <path id="Path_74" data-name="Path 74" d="M1114.912,852.811s-3.052,10.565,6.8,14.554a12.233,12.233,0,0,0,12.029-1.512c-4.352-5.8-10.111-13.175-15.58-19.2a26.489,26.489,0,0,0-4.592-4.01C1112.082,844.671,1110.449,849.7,1114.912,852.811Z" transform="translate(-843.788 -593.816)" fill="#eaa58b"/>
      <circle id="Ellipse_15" data-name="Ellipse 15" cx="4.171" cy="4.171" r="4.171" transform="translate(241.776 258.315)" fill="#eaa58b"/>
      <path id="Path_75" data-name="Path 75" d="M1333.618,997.87h-1.512a2.913,2.913,0,0,0,2.85,3.478,2.81,2.81,0,0,0,.529-.05,10.845,10.845,0,0,0,.149-1.331,2.016,2.016,0,0,0-2.016-2.1Z" transform="translate(-1008.377 -709.926)" fill="#30242a"/>
      <line id="Line_23" data-name="Line 23" y2="2.278" transform="translate(331.244 296.477)" fill="none" stroke="#30242a" stroke-linecap="round" stroke-miterlimit="10" stroke-width="1"/>
      <line id="Line_24" data-name="Line 24" y2="2.278" transform="translate(334.024 296.477)" fill="none" stroke="#30242a" stroke-linecap="round" stroke-miterlimit="10" stroke-width="1"/>
      <path id="Path_76" data-name="Path 76" d="M1301.57,1023.417c6.18-.622,9.864-2.3,11.2-5.857" transform="translate(-985.577 -724.654)" fill="none" stroke="#30242a" stroke-linecap="round" stroke-linejoin="round" stroke-width="1"/>
      <path id="Path_77" data-name="Path 77" d="M807.487,513.962a59.827,59.827,0,0,0-9.352-.1c-4.456.365-10.446,1.532-12.853,2.7s-11.623,5.275-9.141,6.653c2.268,1.26,7.026-.635,7.026-.635s-4.748,4.365-5.564,6.192,1.882,2.853,1.882,2.853c.711,3.12,3.891,1.779,3.891,1.779,2,4.262,12.828-4.972,12.828-4.972a26.623,26.623,0,0,0,7.719-.325s1.371.769,3.571,1.837Z" transform="translate(-592.251 -347.792)" fill="#eaa58a"/>
      <path id="Path_78" data-name="Path 78" d="M928.811,439.723c20.219-9.6-9.09-45.489-19.461-53.833L903.539,409.4l7.329,10.108c-3.211-.554-6.28-.935-9.1-1.159V434.32C908.186,437.44,921.669,443.125,928.811,439.723Z" transform="translate(-686.533 -252.174)" fill="#5791ff"/>
      <path id="Path_79" data-name="Path 79" d="M801.43,534.07c1.794-1.484,4.773-3.883,7-5.33" transform="translate(-611.48 -359.024)" fill="none" stroke="#a15842" stroke-linecap="round" stroke-miterlimit="10" stroke-width="1"/>
      <path id="Path_80" data-name="Path 80" d="M802.707,542.81a79.423,79.423,0,0,0-12.2,10.151" transform="translate(-603.313 -369.548)" fill="none" stroke="#a15842" stroke-linecap="round" stroke-miterlimit="10" stroke-width="1"/>
      <path id="Path_81" data-name="Path 81" d="M817.437,557.82a96.374,96.374,0,0,0-10.3,8.614" transform="translate(-615.751 -380.775)" fill="none" stroke="#a15842" stroke-linecap="round" stroke-miterlimit="10" stroke-width="1"/>
      <path id="Path_82" data-name="Path 82" d="M1060.673,546.424a1.444,1.444,0,0,1,1.441,1.442v.214a1.444,1.444,0,0,1-1.441,1.441h-7.427v-3.1h7.427m0-2.016H1051.5a.272.272,0,0,0-.272.275v6.59a.272.272,0,0,0,.272.272h9.171a3.458,3.458,0,0,0,3.457-3.465v-.222a3.458,3.458,0,0,0-3.458-3.458Z" transform="translate(-798.327 -370.737)" fill="#3ec1f3"/>
      <path id="Path_83" data-name="Path 83" d="M1012.11,522.355a13.143,13.143,0,0,1-10.98-5.985l5.04,21.961h11.865l5.04-21.961A12.891,12.891,0,0,1,1012.11,522.355Z" transform="translate(-760.853 -349.771)" fill="#3ec1f3"/>
      <path id="Path_84" data-name="Path 84" d="M1012.11,522.355a12.891,12.891,0,0,0,10.98-5.985H1001.13A13.144,13.144,0,0,0,1012.11,522.355Z" transform="translate(-760.853 -349.771)" fill="#30242a"/>
    </g>
  </g>
</svg>
